<?xml version="1.0" encoding="utf-8"?>
<!-- Generator: Adobe Illustrator 16.0.0, SVG Export Plug-In . SVG Version: 6.00 Build 0)  -->
<!DOCTYPE svg PUBLIC "-//W3C//DTD SVG 1.1//EN" "http://www.w3.org/Graphics/SVG/1.1/DTD/svg11.dtd">
<svg version="1.1" xmlns="http://www.w3.org/2000/svg" xmlns:xlink="http://www.w3.org/1999/xlink" x="0px" y="0px"
	 width="461.796px" height="300.844px" viewBox="0 0 461.796 300.844" enable-background="new 0 0 461.796 300.844"
	 xml:space="preserve">
<g id="Layer_3">
	<g>
		<g>
			<g>
				<path fill="#FFFFFF" d="M341.127,0c20.18,0,37.424,1.901,51.73,5.702c14.306,3.803,25.984,9.194,35.039,16.172
					c9.052,6.981,15.654,15.447,19.801,25.399s6.22,21.08,6.22,33.381c0,6.913-1.004,13.548-3.006,19.904
					c-2.006,6.359-5.115,12.336-9.33,17.935c-4.218,5.598-9.642,10.678-16.276,15.239s-14.513,8.433-23.636,11.61
					c20.455,4.84,35.591,12.719,45.406,23.637c9.813,10.921,14.721,25.087,14.721,42.504c0,12.719-2.455,24.536-7.36,35.454
					c-4.908,10.921-12.061,20.39-21.459,28.405c-9.401,8.018-20.977,14.273-34.729,18.764c-13.756,4.493-29.546,6.738-47.376,6.738
					H234.349V0H341.127z M296.55,47.272v81.275h40.845c8.708,0,16.448-0.726,23.222-2.177c6.771-1.451,12.44-3.765,17.002-6.946
					c4.562-3.178,8.05-7.36,10.47-12.544c2.417-5.183,3.629-11.436,3.629-18.764c0-7.464-1.004-13.82-3.007-19.074
					c-2.005-5.252-5.079-9.467-9.226-12.648c-4.147-3.178-9.401-5.494-15.758-6.946c-6.359-1.451-13.892-2.177-22.6-2.177H296.55z
					 M349.835,253.156c9.952,0,18.142-1.208,24.569-3.628c6.428-2.417,11.575-5.631,15.446-9.642
					c3.868-4.007,6.563-8.604,8.086-13.787c1.52-5.184,2.281-10.539,2.281-16.069c0-6.08-0.901-11.539-2.695-16.379
					c-1.798-4.837-4.701-8.948-8.708-12.337c-4.011-3.385-9.227-5.977-15.654-7.774c-6.428-1.795-14.342-2.695-23.74-2.695h-52.87
					v82.312H349.835z"/>
			</g>
			<g>
				<path fill="#6E3CAF" d="M70.08,192.614c2.767-4.282,5.876-7.982,9.33-11.092c3.457-3.11,7.188-5.771,11.196-7.982
					c-10.088-3.454-19.075-8.016-26.954-13.685c-7.878-5.666-14.513-12.161-19.904-19.489c-5.391-7.325-9.502-15.446-12.337-24.362
					c-2.831-8.915-4.25-18.349-4.25-28.301c0-12.855,2.212-24.638,6.635-35.351c4.425-10.71,11.403-19.937,20.941-27.679
					c9.537-7.74,21.77-13.788,36.698-18.142S124.333,0,145.342,0h94.545v300.844h-62.201V186.188h-21.148
					c-5.527,0-9.709,0.829-12.544,2.487c-2.832,1.659-5.423,4.286-7.775,7.879l-57.225,92.265
					c-4.698,8.018-12.301,12.025-22.807,12.025H0L70.08,192.614z M177.687,142.439V47.272h-32.344
					c-19.35,0-33.76,3.939-43.229,11.818C92.646,66.969,87.91,78.029,87.91,92.264c0,7.189,1.108,13.824,3.317,19.904
					c2.213,6.084,5.669,11.371,10.367,15.861c4.701,4.493,10.714,8.019,18.039,10.574c7.328,2.56,16.036,3.836,26.124,3.836H177.687
					z"/>
			</g>
		</g>
	</g>
</g>
<g id="Layer_5">
</g>
</svg>
